<svg width="545" height="47" viewBox="0 0 545 47" fill="none" xmlns="http://www.w3.org/2000/svg">
<path d="M22.008 31.768V37H0.984V3.736H7.032V31.768H22.008ZM24.4759 24.568C24.4759 22.36 24.7959 20.424 25.4359 18.76C26.1079 17.096 26.9879 15.72 28.0759 14.632C29.1639 13.512 30.4119 12.68 31.8199 12.136C33.2279 11.56 34.6679 11.272 36.1399 11.272C39.5959 11.272 42.2839 12.344 44.2039 14.488C46.1559 16.632 47.1319 19.832 47.1319 24.088C47.1319 24.408 47.1159 24.776 47.0839 25.192C47.0839 25.576 47.0679 25.928 47.0359 26.248H30.4759C30.6359 28.264 31.3399 29.832 32.5879 30.952C33.8679 32.04 35.7079 32.584 38.1079 32.584C39.5159 32.584 40.7959 32.456 41.9479 32.2C43.1319 31.944 44.0599 31.672 44.7319 31.384L45.4999 36.136C45.1799 36.296 44.7319 36.472 44.1559 36.664C43.6119 36.824 42.9719 36.968 42.2359 37.096C41.5319 37.256 40.7639 37.384 39.9319 37.48C39.0999 37.576 38.2519 37.624 37.3879 37.624C35.1799 37.624 33.2599 37.304 31.6279 36.664C29.9959 35.992 28.6519 35.08 27.5959 33.928C26.5399 32.744 25.7559 31.368 25.2439 29.8C24.7319 28.2 24.4759 26.456 24.4759 24.568ZM41.3239 21.976C41.3239 21.176 41.2119 20.424 40.9879 19.72C40.7639 18.984 40.4279 18.36 39.9799 17.848C39.5639 17.304 39.0359 16.888 38.3959 16.6C37.7879 16.28 37.0519 16.12 36.1879 16.12C35.2919 16.12 34.5079 16.296 33.8359 16.648C33.1639 16.968 32.5879 17.4 32.1079 17.944C31.6599 18.488 31.3079 19.112 31.0519 19.816C30.7959 20.52 30.6199 21.24 30.5239 21.976H41.3239ZM62.1218 32.92C63.9138 32.92 65.2738 32.824 66.2018 32.632V26.2C65.8818 26.104 65.4178 26.008 64.8098 25.912C64.2018 25.816 63.5298 25.768 62.7938 25.768C62.1538 25.768 61.4978 25.816 60.8258 25.912C60.1858 26.008 59.5938 26.184 59.0498 26.44C58.5378 26.696 58.1218 27.064 57.8018 27.544C57.4818 27.992 57.3218 28.568 57.3218 29.272C57.3218 30.648 57.7538 31.608 58.6178 32.152C59.4818 32.664 60.6498 32.92 62.1218 32.92ZM61.6418 11.272C63.5618 11.272 65.1778 11.512 66.4898 11.992C67.8018 12.472 68.8418 13.144 69.6098 14.008C70.4098 14.872 70.9698 15.928 71.2898 17.176C71.6418 18.392 71.8178 19.736 71.8178 21.208V36.424C70.9218 36.616 69.5618 36.84 67.7378 37.096C65.9458 37.384 63.9138 37.528 61.6418 37.528C60.1378 37.528 58.7618 37.384 57.5138 37.096C56.2658 36.808 55.1938 36.344 54.2978 35.704C53.4338 35.064 52.7458 34.232 52.2338 33.208C51.7538 32.184 51.5138 30.92 51.5138 29.416C51.5138 27.976 51.7858 26.76 52.3298 25.768C52.9058 24.776 53.6738 23.976 54.6338 23.368C55.5938 22.728 56.6978 22.28 57.9458 22.024C59.2258 21.736 60.5538 21.592 61.9297 21.592C62.5698 21.592 63.2418 21.64 63.9458 21.736C64.6498 21.8 65.4018 21.928 66.2018 22.12V21.16C66.2018 20.488 66.1218 19.848 65.9618 19.24C65.8018 18.632 65.5138 18.104 65.0978 17.656C64.7138 17.176 64.1858 16.808 63.5138 16.552C62.8738 16.296 62.0578 16.168 61.0658 16.168C59.7218 16.168 58.4898 16.264 57.3698 16.456C56.2498 16.648 55.3378 16.872 54.6338 17.128L53.9138 12.424C54.6498 12.168 55.7218 11.912 57.1298 11.656C58.5378 11.4 60.0418 11.272 61.6418 11.272ZM93.2344 17.128C92.7544 16.968 92.0824 16.808 91.2184 16.648C90.3864 16.456 89.4104 16.36 88.2904 16.36C87.6504 16.36 86.9624 16.424 86.2264 16.552C85.5224 16.68 85.0264 16.792 84.7384 16.888V37H78.9304V13.096C80.0504 12.68 81.4424 12.296 83.1064 11.944C84.8024 11.56 86.6744 11.368 88.7224 11.368C89.1064 11.368 89.5544 11.4 90.0664 11.464C90.5784 11.496 91.0904 11.56 91.6024 11.656C92.1144 11.72 92.6104 11.816 93.0904 11.944C93.5704 12.04 93.9544 12.136 94.2424 12.232L93.2344 17.128ZM98.2898 12.712C99.4098 12.392 100.866 12.088 102.658 11.8C104.45 11.512 106.434 11.368 108.61 11.368C110.658 11.368 112.37 11.656 113.746 12.232C115.122 12.776 116.21 13.56 117.01 14.584C117.842 15.576 118.418 16.792 118.738 18.232C119.09 19.64 119.266 21.192 119.266 22.888V37H113.458V23.8C113.458 22.456 113.362 21.32 113.17 20.392C113.01 19.432 112.722 18.664 112.306 18.088C111.922 17.48 111.378 17.048 110.674 16.792C110.002 16.504 109.17 16.36 108.178 16.36C107.442 16.36 106.674 16.408 105.874 16.504C105.074 16.6 104.482 16.68 104.098 16.744V37H98.2898V12.712ZM132.224 37H126.416V11.896H132.224V37ZM132.848 4.552C132.848 5.64 132.496 6.504 131.792 7.144C131.088 7.784 130.256 8.104 129.296 8.104C128.304 8.104 127.456 7.784 126.752 7.144C126.048 6.504 125.696 5.64 125.696 4.552C125.696 3.432 126.048 2.552 126.752 1.912C127.456 1.272 128.304 0.951998 129.296 0.951998C130.256 0.951998 131.088 1.272 131.792 1.912C132.496 2.552 132.848 3.432 132.848 4.552ZM139.634 12.712C140.754 12.392 142.21 12.088 144.002 11.8C145.794 11.512 147.778 11.368 149.954 11.368C152.002 11.368 153.714 11.656 155.09 12.232C156.466 12.776 157.554 13.56 158.354 14.584C159.186 15.576 159.762 16.792 160.082 18.232C160.434 19.64 160.609 21.192 160.609 22.888V37H154.802V23.8C154.802 22.456 154.706 21.32 154.514 20.392C154.354 19.432 154.066 18.664 153.65 18.088C153.266 17.48 152.722 17.048 152.018 16.792C151.346 16.504 150.514 16.36 149.522 16.36C148.786 16.36 148.018 16.408 147.218 16.504C146.418 16.6 145.826 16.68 145.442 16.744V37H139.634V12.712ZM172.272 23.8C172.272 26.264 172.8 28.072 173.856 29.224C174.944 30.344 176.336 30.904 178.032 30.904C178.96 30.904 179.824 30.776 180.624 30.52C181.456 30.264 182.128 29.96 182.64 29.608V16.6C182.224 16.504 181.712 16.424 181.104 16.36C180.496 16.264 179.728 16.216 178.8 16.216C176.688 16.216 175.072 16.92 173.952 18.328C172.832 19.704 172.272 21.528 172.272 23.8ZM188.448 34.456C188.448 38.456 187.424 41.384 185.376 43.24C183.36 45.096 180.256 46.024 176.064 46.024C174.528 46.024 173.024 45.896 171.552 45.64C170.112 45.384 168.8 45.048 167.616 44.632L168.672 39.688C169.664 40.104 170.784 40.44 172.032 40.696C173.312 40.952 174.688 41.08 176.16 41.08C178.496 41.08 180.16 40.6 181.152 39.64C182.144 38.68 182.64 37.256 182.64 35.368V34.408C182.064 34.696 181.296 34.984 180.336 35.272C179.408 35.56 178.336 35.704 177.12 35.704C175.52 35.704 174.048 35.448 172.704 34.936C171.392 34.424 170.256 33.672 169.296 32.68C168.368 31.688 167.632 30.456 167.088 28.984C166.576 27.48 166.32 25.752 166.32 23.8C166.32 21.976 166.592 20.296 167.136 18.76C167.712 17.224 168.528 15.912 169.584 14.824C170.672 13.736 171.984 12.888 173.52 12.28C175.056 11.672 176.8 11.368 178.752 11.368C180.64 11.368 182.432 11.512 184.128 11.8C185.824 12.088 187.264 12.392 188.448 12.712V34.456ZM206.752 5.272L212.56 4.312V11.896H221.488V16.744H212.56V26.968C212.56 28.984 212.88 30.424 213.52 31.288C214.16 32.152 215.248 32.584 216.784 32.584C217.84 32.584 218.768 32.472 219.568 32.248C220.4 32.024 221.056 31.816 221.536 31.624L222.496 36.232C221.824 36.52 220.944 36.808 219.856 37.096C218.768 37.416 217.488 37.576 216.016 37.576C214.224 37.576 212.72 37.336 211.504 36.856C210.32 36.376 209.376 35.688 208.672 34.792C207.968 33.864 207.472 32.76 207.184 31.48C206.896 30.168 206.752 28.68 206.752 27.016V5.272ZM249.244 24.424C249.244 26.408 248.956 28.216 248.38 29.848C247.804 31.48 246.988 32.872 245.932 34.024C244.876 35.176 243.596 36.072 242.092 36.712C240.62 37.352 238.988 37.672 237.196 37.672C235.404 37.672 233.772 37.352 232.3 36.712C230.828 36.072 229.564 35.176 228.508 34.024C227.452 32.872 226.62 31.48 226.012 29.848C225.436 28.216 225.148 26.408 225.148 24.424C225.148 22.44 225.436 20.648 226.012 19.048C226.62 17.416 227.452 16.024 228.508 14.872C229.596 13.72 230.876 12.84 232.348 12.232C233.82 11.592 235.436 11.272 237.196 11.272C238.956 11.272 240.572 11.592 242.044 12.232C243.548 12.84 244.828 13.72 245.884 14.872C246.94 16.024 247.756 17.416 248.332 19.048C248.94 20.648 249.244 22.44 249.244 24.424ZM243.292 24.424C243.292 21.928 242.748 19.96 241.66 18.52C240.604 17.048 239.116 16.312 237.196 16.312C235.276 16.312 233.772 17.048 232.684 18.52C231.628 19.96 231.1 21.928 231.1 24.424C231.1 26.952 231.628 28.952 232.684 30.424C233.772 31.896 235.276 32.632 237.196 32.632C239.116 32.632 240.604 31.896 241.66 30.424C242.748 28.952 243.292 26.952 243.292 24.424ZM265.038 24.472C265.038 22.616 265.326 20.888 265.902 19.288C266.478 17.656 267.294 16.248 268.35 15.064C269.438 13.88 270.75 12.952 272.286 12.28C273.822 11.608 275.55 11.272 277.47 11.272C279.838 11.272 282.078 11.704 284.19 12.568L282.942 17.32C282.27 17.032 281.502 16.792 280.638 16.6C279.806 16.408 278.91 16.312 277.95 16.312C275.678 16.312 273.95 17.032 272.766 18.472C271.582 19.88 270.99 21.88 270.99 24.472C270.99 26.968 271.55 28.952 272.67 30.424C273.79 31.864 275.678 32.584 278.334 32.584C279.326 32.584 280.302 32.488 281.262 32.296C282.222 32.104 283.054 31.864 283.758 31.576L284.574 36.376C283.934 36.696 282.958 36.984 281.646 37.24C280.366 37.496 279.038 37.624 277.662 37.624C275.518 37.624 273.646 37.304 272.046 36.664C270.478 35.992 269.166 35.08 268.11 33.928C267.086 32.744 266.318 31.352 265.806 29.752C265.294 28.12 265.038 26.36 265.038 24.472ZM311.259 24.424C311.259 26.408 310.971 28.216 310.395 29.848C309.819 31.48 309.003 32.872 307.947 34.024C306.891 35.176 305.611 36.072 304.107 36.712C302.635 37.352 301.003 37.672 299.211 37.672C297.419 37.672 295.787 37.352 294.315 36.712C292.843 36.072 291.579 35.176 290.523 34.024C289.467 32.872 288.635 31.48 288.027 29.848C287.451 28.216 287.163 26.408 287.163 24.424C287.163 22.44 287.451 20.648 288.027 19.048C288.635 17.416 289.467 16.024 290.523 14.872C291.611 13.72 292.891 12.84 294.363 12.232C295.835 11.592 297.451 11.272 299.211 11.272C300.971 11.272 302.587 11.592 304.059 12.232C305.563 12.84 306.843 13.72 307.899 14.872C308.955 16.024 309.771 17.416 310.347 19.048C310.955 20.648 311.259 22.44 311.259 24.424ZM305.307 24.424C305.307 21.928 304.763 19.96 303.675 18.52C302.619 17.048 301.131 16.312 299.211 16.312C297.291 16.312 295.787 17.048 294.699 18.52C293.643 19.96 293.115 21.928 293.115 24.424C293.115 26.952 293.643 28.952 294.699 30.424C295.787 31.896 297.291 32.632 299.211 32.632C301.131 32.632 302.619 31.896 303.675 30.424C304.763 28.952 305.307 26.952 305.307 24.424ZM317.243 12.712C318.363 12.392 319.819 12.088 321.611 11.8C323.403 11.512 325.387 11.368 327.563 11.368C329.611 11.368 331.323 11.656 332.699 12.232C334.075 12.776 335.163 13.56 335.963 14.584C336.795 15.576 337.371 16.792 337.691 18.232C338.043 19.64 338.219 21.192 338.219 22.888V37H332.411V23.8C332.411 22.456 332.315 21.32 332.123 20.392C331.963 19.432 331.675 18.664 331.259 18.088C330.875 17.48 330.331 17.048 329.627 16.792C328.955 16.504 328.123 16.36 327.131 16.36C326.395 16.36 325.627 16.408 324.827 16.504C324.027 16.6 323.435 16.68 323.051 16.744V37H317.243V12.712ZM351.609 32.824C353.145 32.824 354.265 32.648 354.969 32.296C355.673 31.912 356.025 31.272 356.025 30.376C356.025 29.544 355.641 28.856 354.873 28.312C354.137 27.768 352.905 27.176 351.177 26.536C350.121 26.152 349.145 25.752 348.249 25.336C347.385 24.888 346.633 24.376 345.993 23.8C345.353 23.224 344.841 22.536 344.457 21.736C344.105 20.904 343.929 19.896 343.929 18.712C343.929 16.408 344.777 14.6 346.473 13.288C348.169 11.944 350.473 11.272 353.385 11.272C354.857 11.272 356.265 11.416 357.609 11.704C358.953 11.96 359.961 12.216 360.633 12.472L359.577 17.176C358.937 16.888 358.121 16.632 357.129 16.408C356.137 16.152 354.985 16.024 353.673 16.024C352.489 16.024 351.529 16.232 350.793 16.648C350.057 17.032 349.689 17.64 349.689 18.472C349.689 18.888 349.753 19.256 349.881 19.576C350.041 19.896 350.297 20.2 350.649 20.488C351.001 20.744 351.465 21.016 352.041 21.304C352.617 21.56 353.321 21.832 354.153 22.12C355.529 22.632 356.697 23.144 357.657 23.656C358.617 24.136 359.401 24.696 360.009 25.336C360.649 25.944 361.113 26.648 361.401 27.448C361.689 28.248 361.833 29.208 361.833 30.328C361.833 32.728 360.937 34.552 359.145 35.8C357.385 37.016 354.857 37.624 351.561 37.624C349.353 37.624 347.577 37.432 346.233 37.048C344.889 36.696 343.945 36.408 343.401 36.184L344.409 31.336C345.273 31.688 346.297 32.024 347.481 32.344C348.697 32.664 350.073 32.824 351.609 32.824ZM387.851 36.232C386.731 36.52 385.275 36.808 383.483 37.096C381.691 37.416 379.723 37.576 377.579 37.576C375.563 37.576 373.867 37.288 372.491 36.712C371.147 36.136 370.059 35.336 369.227 34.312C368.427 33.288 367.851 32.072 367.499 30.664C367.147 29.224 366.971 27.656 366.971 25.96V11.896H372.779V25.048C372.779 27.736 373.163 29.656 373.931 30.808C374.731 31.96 376.107 32.536 378.059 32.536C378.763 32.536 379.499 32.504 380.267 32.44C381.067 32.376 381.659 32.296 382.043 32.2V11.896H387.851V36.232ZM409.547 23.8C409.547 21.176 409.211 19.288 408.539 18.136C407.899 16.952 406.683 16.36 404.891 16.36C404.251 16.36 403.547 16.408 402.779 16.504C402.011 16.6 401.435 16.68 401.051 16.744V37H395.243V12.712C396.363 12.392 397.819 12.088 399.611 11.8C401.435 11.512 403.355 11.368 405.371 11.368C407.099 11.368 408.507 11.592 409.595 12.04C410.715 12.488 411.643 13.08 412.379 13.816C412.731 13.56 413.179 13.288 413.723 13C414.267 12.712 414.875 12.456 415.547 12.232C416.219 11.976 416.923 11.768 417.659 11.608C418.427 11.448 419.195 11.368 419.963 11.368C421.915 11.368 423.515 11.656 424.763 12.232C426.043 12.776 427.035 13.56 427.739 14.584C428.475 15.576 428.971 16.792 429.227 18.232C429.515 19.64 429.659 21.192 429.659 22.888V37H423.851V23.8C423.851 21.176 423.531 19.288 422.891 18.136C422.251 16.952 421.019 16.36 419.195 16.36C418.267 16.36 417.387 16.52 416.555 16.84C415.723 17.128 415.099 17.416 414.683 17.704C414.939 18.504 415.115 19.352 415.211 20.248C415.307 21.144 415.355 22.104 415.355 23.128V37H409.547V23.8ZM435.382 24.568C435.382 22.36 435.702 20.424 436.342 18.76C437.014 17.096 437.894 15.72 438.982 14.632C440.07 13.512 441.318 12.68 442.726 12.136C444.134 11.56 445.574 11.272 447.046 11.272C450.502 11.272 453.19 12.344 455.11 14.488C457.062 16.632 458.038 19.832 458.038 24.088C458.038 24.408 458.022 24.776 457.99 25.192C457.99 25.576 457.974 25.928 457.942 26.248H441.382C441.542 28.264 442.246 29.832 443.494 30.952C444.774 32.04 446.614 32.584 449.014 32.584C450.422 32.584 451.702 32.456 452.854 32.2C454.038 31.944 454.966 31.672 455.638 31.384L456.406 36.136C456.086 36.296 455.638 36.472 455.062 36.664C454.518 36.824 453.878 36.968 453.142 37.096C452.438 37.256 451.67 37.384 450.838 37.48C450.006 37.576 449.158 37.624 448.294 37.624C446.086 37.624 444.166 37.304 442.534 36.664C440.902 35.992 439.558 35.08 438.502 33.928C437.446 32.744 436.662 31.368 436.15 29.8C435.638 28.2 435.382 26.456 435.382 24.568ZM452.23 21.976C452.23 21.176 452.118 20.424 451.894 19.72C451.67 18.984 451.334 18.36 450.886 17.848C450.47 17.304 449.942 16.888 449.302 16.6C448.694 16.28 447.958 16.12 447.094 16.12C446.198 16.12 445.414 16.296 444.742 16.648C444.07 16.968 443.494 17.4 443.014 17.944C442.566 18.488 442.214 19.112 441.958 19.816C441.702 20.52 441.526 21.24 441.43 21.976H452.23Z" fill="black"/>
<path d="M497.767 37C497.319 35.688 496.855 34.392 496.375 33.112C495.895 31.832 495.431 30.52 494.983 29.176H480.967C480.519 30.52 480.055 31.848 479.575 33.16C479.127 34.44 478.679 35.72 478.231 37H471.943C473.191 33.448 474.375 30.168 475.495 27.16C476.615 24.152 477.703 21.304 478.759 18.616C479.847 15.928 480.919 13.368 481.975 10.936C483.031 8.504 484.119 6.104 485.239 3.736H490.951C492.071 6.104 493.159 8.504 494.215 10.936C495.271 13.368 496.327 15.928 497.383 18.616C498.471 21.304 499.575 24.152 500.695 27.16C501.847 30.168 503.047 33.448 504.295 37H497.767ZM487.975 10.168C487.239 11.864 486.391 13.928 485.431 16.36C484.503 18.792 483.527 21.432 482.503 24.28H493.447C492.423 21.432 491.431 18.776 490.471 16.312C489.511 13.848 488.679 11.8 487.975 10.168ZM517.908 3.4C522.74 3.4 526.436 4.28 528.996 6.04C531.588 7.8 532.884 10.552 532.884 14.296C532.884 16.248 532.532 17.928 531.828 19.336C531.156 20.712 530.164 21.848 528.852 22.744C527.54 23.608 525.94 24.248 524.052 24.664C522.164 25.08 520.004 25.288 517.572 25.288H514.548V37H508.5V4.216C509.908 3.896 511.46 3.688 513.156 3.592C514.884 3.464 516.468 3.4 517.908 3.4ZM518.34 8.632C516.804 8.632 515.54 8.68 514.548 8.776V20.104H517.476C520.388 20.104 522.628 19.704 524.196 18.904C525.764 18.072 526.548 16.52 526.548 14.248C526.548 13.16 526.34 12.248 525.924 11.512C525.508 10.776 524.932 10.2 524.196 9.784C523.46 9.368 522.58 9.08 521.556 8.92C520.564 8.728 519.492 8.632 518.34 8.632ZM538.406 3.736H544.454V37H538.406V3.736Z" fill="#7A7A7A"/>
</svg>
